<?xml version="1.0" encoding="utf-8"?>
<!DOCTYPE svg PUBLIC "-//W3C//DTD SVG 1.1//EN" "http://www.w3.org/Graphics/SVG/1.1/DTD/svg11.dtd">
<svg version="1.1" xmlns="http://www.w3.org/2000/svg" xmlns:xlink="http://www.w3.org/1999/xlink" x="0px" y="0px" viewBox="0 0 1000 1000" enable-background="new 0 0 1000 1000" xml:space="preserve">
<g><g transform="translate(0.000000,511.000000) scale(0.100000,-0.100000)"><path d="M4452.4,5001.7c-366.1-56.9-805.4-158.6-1057.6-248.1C1946.7,4237,795.6,3057.3,327.8,1617.4C148.8,1064.2,100,742.8,100,104.2c0-862.4,154.6-1509.1,536.9-2249.4C1316.2-3455,2528.4-4378.4,4033.4-4724.1c410.8-93.6,1517.2-93.6,1936.2,0c1976.9,451.5,3408.7,1883.4,3860.2,3860.2c93.5,419,93.5,1525.4,0,1936.2c-455.6,1985-1903.7,3429-3860.2,3856.2C5680.8,4989.5,4700.5,5038.3,4452.4,5001.7z M5819.1,4721c2269.8-423,3860.2-2322.6,3860.2-4616.8c0-2611.4-2066.4-4677.8-4677.8-4677.8c-2611.4,0-4677.8,2066.4-4677.8,4673.7c0,1004.7,284.7,1915.9,846.1,2709.1c703.7,996.6,1785.7,1692.1,2985.7,1907.7C4574.4,4794.2,5408.3,4794.2,5819.1,4721z"/><path d="M5367.6,3874.9c0-97.6,16.3-105.8,235.9-130.2c1322-154.6,2343-1151.1,2469.1-2424.3c28.5-276.6,32.5-280.7,146.4-280.7c113.9,0,113.9,0,93.6,215.6c-32.6,309.1-134.3,707.8-244.1,951.8C7653.6,3155,6653,3883.1,5664.6,3956.3l-296.9,24.4V3874.9z"/><path d="M4838.8,999.1c-435.2-81.3-740.3-451.5-740.3-894.9c0-516.6,402.7-907.1,927.4-903c475.9,4.1,874.5,402.7,878.6,878.7C5908.6,665.5,5400.1,1104.9,4838.8,999.1z M5326.9,702.2c207.4-109.8,366.1-366.1,366.1-598c0-353.9-337.6-691.5-691.5-691.5c-353.9,0-691.5,337.6-691.5,691.5c0,231.9,158.6,488.1,366.1,598C4899.8,820.1,5103.2,820.1,5326.9,702.2z"/></g></g>
</svg>